<?xml version="1.0" encoding="utf-8"?>
<!-- Generator: Adobe Illustrator 24.0.0, SVG Export Plug-In . SVG Version: 6.00 Build 0)  -->
<svg version="1.1" id="图层_1" xmlns="http://www.w3.org/2000/svg" xmlns:xlink="http://www.w3.org/1999/xlink" x="0px" y="0px"
	 viewBox="0 0 8000 8000" style="enable-background:new 0 0 8000 8000;" xml:space="preserve">
<style type="text/css">
	.st0{fill:#FFFFFF;}
	.st1{fill:#777777;}
</style>
<path class="st0" d="M3468.8,625c-344.6,0-625,280.4-625,625v3281.3c0,344.6,280.4,625,625,625H6750c344.6,0,625-280.4,625-625V1250
	c0-344.6-280.4-625-625-625H3468.8 M3468.8,0H6750c690.4,0,1250,559.6,1250,1250v3281.3c0,690.4-559.6,1250-1250,1250H3468.8
	c-690.4,0-1250-559.6-1250-1250V1250C2218.8,559.6,2778.4,0,3468.8,0z"/>
<path class="st0" d="M2359.4,1734.4c-344.6,0-625,280.4-625,625v3281.3c0,344.6,280.4,625,625,625h3281.3c344.6,0,625-280.4,625-625
	V2359.4c0-344.6-280.4-625-625-625H2359.4 M2359.4,1109.4h3281.3c690.4,0,1250,559.6,1250,1250v3281.3c0,690.4-559.6,1250-1250,1250
	H2359.4c-690.4,0-1250-559.6-1250-1250V2359.4C1109.4,1669,1669,1109.4,2359.4,1109.4z"/>
<path class="st1" d="M4531.3,7687.5H1250c-516.9,0-937.5-420.6-937.5-937.5V3468.8c0-516.9,420.6-937.5,937.5-937.5h3281.3
	c516.9,0,937.5,420.6,937.5,937.5V6750C5468.8,7266.9,5048.2,7687.5,4531.3,7687.5z"/>
<path class="st0" d="M1250,2843.8c-344.6,0-625,280.4-625,625V6750c0,344.6,280.4,625,625,625h3281.3c344.6,0,625-280.4,625-625
	V3468.8c0-344.6-280.4-625-625-625H1250 M1250,2218.8h3281.3c690.4,0,1250,559.6,1250,1250V6750c0,690.4-559.6,1250-1250,1250H1250
	C559.6,8000,0,7440.4,0,6750V3468.8C0,2778.4,559.6,2218.8,1250,2218.8z"/>
</svg>
