<?xml version="1.0" encoding="utf-8"?>
<!-- Generator: Adobe Illustrator 24.0.0, SVG Export Plug-In . SVG Version: 6.00 Build 0)  -->
<svg version="1.1" id="图层_1" xmlns="http://www.w3.org/2000/svg" xmlns:xlink="http://www.w3.org/1999/xlink" x="0px" y="0px"
	 viewBox="0 0 200 200" style="enable-background:new 0 0 200 200;" xml:space="preserve">
<style type="text/css">
	.st0{fill:#FFFFFF;}
</style>
<path class="st0" d="M174.1,35.4c0-3.5-2.9-6.3-6.3-6.3H32.2c-3.5,0-6.3,2.9-6.3,6.3c0,3.5,2.9,6.3,6.3,6.3h135.6
	C171.3,41.8,174.1,38.9,174.1,35.4z"/>
<path class="st0" d="M106.7,131.9V60.7c0-3.2,2.6-5.9,5.9-5.9h46.9c3.2,0,5.9,2.6,5.9,5.9v71.1c0,3.2-2.6,5.9-5.9,5.9h-46.9
	C109.3,137.7,106.7,135.1,106.7,131.9z"/>
<path class="st0" d="M87.4,54.9H40.6c-3.2,0-5.9,2.6-5.9,5.9v104.3c0,3.2,2.6,5.9,5.9,5.9h46.9c3.2,0,5.9-2.6,5.9-5.9V60.7
	C93.3,57.5,90.7,54.9,87.4,54.9z M81.6,159.2H46.4V66.6h35.2V159.2z"/>
</svg>
