<?xml version="1.0" encoding="utf-8"?>
<!-- Generator: Adobe Illustrator 24.0.0, SVG Export Plug-In . SVG Version: 6.00 Build 0)  -->
<svg version="1.1" id="图层_1" xmlns="http://www.w3.org/2000/svg" xmlns:xlink="http://www.w3.org/1999/xlink" x="0px" y="0px"
	 viewBox="0 0 200 200" style="enable-background:new 0 0 200 200;" xml:space="preserve">
<style type="text/css">
	.st0{fill:#FFFFFF;}
</style>
<path class="st0" d="M174.1,100c0-3.5-2.9-6.3-6.3-6.3H32.2c-3.5,0-6.3,2.9-6.3,6.3s2.9,6.3,6.3,6.3h135.6
	C171.3,106.3,174.1,103.5,174.1,100z"/>
<path class="st0" d="M106.7,135.6V64.4c0-3.2,2.6-5.9,5.9-5.9h46.9c3.2,0,5.9,2.6,5.9,5.9v71.1c0,3.2-2.6,5.9-5.9,5.9h-46.9
	C109.3,141.4,106.7,138.8,106.7,135.6z"/>
<path class="st0" d="M89.8,42H42.9c-3.2,0-5.9,2.6-5.9,5.9v104.3c0,3.2,2.6,5.9,5.9,5.9h46.9c3.2,0,5.9-2.6,5.9-5.9V47.8
	C95.6,44.6,93,42,89.8,42z M83.9,146.3H48.8V53.7h35.2V146.3z"/>
</svg>
