<?xml version="1.0" encoding="utf-8"?>
<!-- Generator: Adobe Illustrator 24.0.0, SVG Export Plug-In . SVG Version: 6.00 Build 0)  -->
<svg version="1.1" id="图层_1" xmlns="http://www.w3.org/2000/svg" xmlns:xlink="http://www.w3.org/1999/xlink" x="0px" y="0px"
	 viewBox="0 0 200 200" style="enable-background:new 0 0 200 200;" xml:space="preserve">
<style type="text/css">
	.st0{fill:#FFFFFF;}
</style>
<path class="st0" d="M164.4,174.1c3.5,0,6.3-2.9,6.3-6.3V32.2c0-3.5-2.9-6.3-6.3-6.3s-6.3,2.9-6.3,6.3v135.6
	C158,171.3,160.9,174.1,164.4,174.1z"/>
<path class="st0" d="M68,93.3h71.1c3.2,0,5.9-2.6,5.9-5.9V40.6c0-3.2-2.6-5.9-5.9-5.9H68c-3.2,0-5.9,2.6-5.9,5.9v46.9
	C62.1,90.7,64.7,93.3,68,93.3z"/>
<path class="st0" d="M139.1,106.7H34.8c-3.2,0-5.9,2.6-5.9,5.9v46.9c0,3.2,2.6,5.9,5.9,5.9h104.3c3.2,0,5.9-2.6,5.9-5.9v-46.9
	C145,109.3,142.3,106.7,139.1,106.7z M133.2,153.5H40.6v-35.1h92.6V153.5z"/>
</svg>
