<?xml version="1.0" encoding="utf-8"?>
<!-- Generator: Adobe Illustrator 24.0.0, SVG Export Plug-In . SVG Version: 6.00 Build 0)  -->
<svg version="1.1" id="图层_2" xmlns="http://www.w3.org/2000/svg" xmlns:xlink="http://www.w3.org/1999/xlink" x="0px" y="0px"
	 viewBox="0 0 8000 8000" style="enable-background:new 0 0 8000 8000;" xml:space="preserve">
<style type="text/css">
	.st0{fill:none;stroke:#FFFFFF;stroke-width:250;stroke-linecap:round;stroke-linejoin:round;stroke-miterlimit:10;}
	.st1{fill:none;stroke:#FFFFFF;stroke-width:200;stroke-linecap:round;stroke-linejoin:round;}
	.st2{fill:none;stroke:#FFFFFF;stroke-width:200;stroke-linecap:round;stroke-linejoin:round;stroke-dasharray:598.2177,598.2177;}
	.st3{fill:none;stroke:#FFFFFF;stroke-width:200;stroke-linecap:round;stroke-linejoin:round;stroke-dasharray:604.2234,604.2234;}
	.st4{fill:none;stroke:#FFFFFF;stroke-width:200;stroke-linecap:round;stroke-linejoin:round;stroke-dasharray:621.1332,621.1332;}
	.st5{fill:#FFFFFF;}
</style>
<g id="SPLINE_1_">
	<path class="st0" d="M791,7024.8c1019.6-4627,4978-229.6,6548.5-6219.9"/>
</g>
<g id="LINE">
	<g>
		<g>
			<line class="st1" x1="1835.1" y1="2336.6" x2="1769.9" y2="2629.4"/>
			<line class="st2" x1="1639.8" y1="3213.3" x2="924.6" y2="6424.8"/>
			<line class="st1" x1="859.6" y1="6716.8" x2="794.4" y2="7009.6"/>
		</g>
	</g>
</g>
<g id="LINE_1_">
	<g>
		<g>
			<line class="st1" x1="5879" y1="6820.4" x2="5678.1" y2="6597.6"/>
			<line class="st3" x1="5273.4" y1="6148.9" x2="2238.4" y2="2783.7"/>
			<line class="st1" x1="2036" y1="2559.4" x2="1835.1" y2="2336.6"/>
		</g>
	</g>
</g>
<g id="LINE_2_">
	<g>
		<g>
			<line class="st1" x1="5879" y1="6820.4" x2="5949.8" y2="6528.9"/>
			<line class="st4" x1="6096.3" y1="5925.3" x2="7195.5" y2="1398.3"/>
			<line class="st1" x1="7268.7" y1="1096.5" x2="7339.5" y2="805"/>
		</g>
	</g>
</g>
<rect x="1335.1" y="1775.4" class="st5" width="1000" height="1000"/>
<rect x="291" y="6583.7" class="st5" width="1000" height="1000"/>
<rect x="5379" y="6320.4" class="st5" width="1000" height="1000"/>
<rect x="6839.5" y="305" class="st5" width="1000" height="1000"/>
</svg>
