<?xml version="1.0" standalone="no"?><!DOCTYPE svg PUBLIC "-//W3C//DTD SVG 1.1//EN" "http://www.w3.org/Graphics/SVG/1.1/DTD/svg11.dtd"><svg t="1781703557090" class="icon" viewBox="0 0 1024 1024" version="1.1" xmlns="http://www.w3.org/2000/svg" p-id="47140" xmlns:xlink="http://www.w3.org/1999/xlink" width="8000" height="8000"><path d="M192 64A64 64 0 0 0 128 128v768a64 64 0 0 0 64 64h640a64 64 0 0 0 64-64V288h-160a64 64 0 0 1-64-64V64H192z m252.558222 343.552l50.545778-50.545778c55.751111-55.751111 150.328889-51.655111 211.2 9.187556 60.785778 60.871111 64.967111 155.477333 9.159111 211.2l-50.488889 50.574222c-13.966222 13.937778-37.575111 12.913778-52.821333-2.304-15.217778-15.217778-16.241778-38.855111-2.275556-52.792889l50.545778-50.574222c27.847111-27.818667 25.799111-75.121778-4.693333-105.585778-30.378667-30.407111-77.681778-32.455111-105.585778-4.551111l-50.488889 50.488889c-13.937778 13.937778-37.575111 12.942222-52.792889-2.275556-15.246222-15.246222-16.270222-38.855111-2.332444-52.821333z m13.738667 316.785778l50.574222-50.488889c13.937778-13.937778 37.546667-12.913778 52.792889 2.304 15.246222 15.246222 16.270222 38.855111 2.304 52.821333l-50.574222 50.545778c-55.751111 55.751111-150.385778 51.655111-211.2-9.216-60.871111-60.871111-64.938667-155.448889-9.216-211.2l50.574222-50.545778c13.937778-13.966222 37.546667-12.942222 52.792889 2.275556 15.189333 15.246222 16.270222 38.855111 2.304 52.821333l-50.545778 50.545778c-27.847111 27.847111-25.799111 75.150222 4.608 105.614222 30.407111 30.407111 77.738667 32.426667 105.585778 4.551111z m23.04-78.051556c-14.08 13.994667-37.632 12.970667-52.849778-2.275555-15.246222-15.217778-16.270222-38.826667-2.304-52.764445l101.034667-101.063111c13.966222-13.937778 37.575111-12.942222 52.821333 2.275556 15.217778 15.246222 16.241778 38.883556 2.275556 52.821333l-101.034667 101.12 0.056889-0.142222z" p-id="47141" fill="#ffffff"></path><path d="M896 256l-192-192V230.4c0 14.08 11.52 25.6 25.6 25.6h166.4z" p-id="47142" fill="#ffffff"></path></svg>