<?xml version="1.0" standalone="no"?><!DOCTYPE svg PUBLIC "-//W3C//DTD SVG 1.1//EN" "http://www.w3.org/Graphics/SVG/1.1/DTD/svg11.dtd"><svg t="1781703344490" class="icon" viewBox="0 0 1024 1024" version="1.1" xmlns="http://www.w3.org/2000/svg" p-id="38848" xmlns:xlink="http://www.w3.org/1999/xlink" width="8000" height="8000"><path d="M101.313 684.752l0.471 0.464 239.5 239.5c15.621 15.62 15.621 40.947 0 56.568-15.464 15.465-40.442 15.62-56.097 0.464l-0.471-0.464-239.5-239.5c-15.621-15.62-15.621-40.947 0-56.568 15.464-15.465 40.442-15.62 56.097-0.464z m578.51-468.378l0.433 0.005 103.795 0.15c13.374 0.02 24.255 10.769 24.492 24.091l0.004 0.405 0.15 103.794c-0.213 13.343-11.08 24.024-24.426 24.004-13.212-0.019-24.026-10.517-24.485-23.675l-0.01-0.4-0.065-44.735-21.287 21.287a25.94 25.94 0 0 1-4.759 6.8l-0.302 0.306-427.5 426.5a26.065 26.065 0 0 1-4.877 3.83l-1.362 1.362 44.735 0.065c8.84-0.141 17.082 4.5 21.558 12.137a24.465 24.465 0 0 1 0.036 24.71 24.381 24.381 0 0 1-21.09 12.08l-0.433-0.005-103.795-0.15c-13.373-0.021-24.255-10.77-24.492-24.092l-0.004-0.404-0.15-103.795c0.213-13.343 11.08-24.023 24.426-24.004 13.212 0.02 24.026 10.518 24.485 23.675l0.01 0.4 0.062 42.791a26.008 26.008 0 0 1 3.863-5.106l0.302-0.306 427.5-426.5a25.952 25.952 0 0 1 7.348-5.153l21.078-21.076-44.736-0.065c-8.84 0.141-17.082-4.499-21.558-12.137a24.465 24.465 0 0 1-0.036-24.71 24.38 24.38 0 0 1 20.656-12.075l0.433-0.004z m59.49-170.622l0.471 0.464 239.5 239.5c15.621 15.62 15.621 40.947 0 56.568-15.464 15.465-40.442 15.62-56.097 0.464l-0.471-0.464-239.5-239.5c-15.621-15.62-15.621-40.947 0-56.568 15.464-15.465 40.442-15.62 56.097-0.464z" fill="#ffffff" p-id="38849"></path></svg>