<?xml version="1.0" standalone="no"?><!DOCTYPE svg PUBLIC "-//W3C//DTD SVG 1.1//EN" "http://www.w3.org/Graphics/SVG/1.1/DTD/svg11.dtd"><svg t="1781703590527" class="icon" viewBox="0 0 1024 1024" version="1.1" xmlns="http://www.w3.org/2000/svg" p-id="48219" xmlns:xlink="http://www.w3.org/1999/xlink" width="8000" height="8000"><path d="M145.493 490.667H64v234.666h874.667V490.667h-81.152V560a32 32 0 1 1-64 0v-69.333h-64v138.666a32 32 0 1 1-64 0V490.667h-64V560a32 32 0 1 1-64 0v-69.333h-64v138.666a32 32 0 1 1-64 0V490.667h-64V560a32 32 0 1 1-64 0v-69.333h-72.022v138.666a32 32 0 1 1-64 0V490.667zM32 320a32 32 0 0 1 0-64h938.667a32 32 0 1 1 0 64H32zM0 458.667a32 32 0 0 1 32-32h938.667a32 32 0 0 1 32 32v298.666a32 32 0 0 1-32 32H32a32 32 0 0 1-32-32V458.667z" p-id="48220" fill="#ffffff"></path></svg>