<?xml version="1.0" standalone="no"?><!DOCTYPE svg PUBLIC "-//W3C//DTD SVG 1.1//EN" "http://www.w3.org/Graphics/SVG/1.1/DTD/svg11.dtd"><svg t="1781704839710" class="icon" viewBox="0 0 1024 1024" version="1.1" xmlns="http://www.w3.org/2000/svg" p-id="55958" xmlns:xlink="http://www.w3.org/1999/xlink" width="8000" height="8000"><path d="M350 151.25c-12.5-5-26.25 0-33.75 12.5L17.5 783.75c-6.25 11.25-7.5 18.75-2.5 30 5 11.25 15 18.75 26.25 18.75l298.75 0c16.25 0 30-8.75 30-28.75L370 185C371.25 170 362.5 156.25 350 151.25zM311.25 768.75 100 768.75l211.25-476.25L311.25 768.75 311.25 768.75zM1006.25 783.75 707.5 163.75c-7.5-12.5-21.25-17.5-33.75-12.5-12.5 5-20 17.5-20 33.75l0 612.5c0 18.75 13.75 35 30 35l298.75 0c11.25 0 21.25-7.5 26.25-18.75C1013.75 801.25 1012.5 793.75 1006.25 783.75zM712.5 768.75 712.5 292.5l211.25 476.25L712.5 768.75zM512.5 991.25 512.5 991.25c-17.5 0-32.5-13.75-32.5-32.5L480 67.5c0-17.5 13.75-32.5 32.5-32.5l0 0c17.5 0 32.5 13.75 32.5 32.5l0 892.5C543.75 977.5 530 991.25 512.5 991.25z" p-id="55959" fill="#ffffff"></path></svg>