<?xml version="1.0" standalone="no"?><!DOCTYPE svg PUBLIC "-//W3C//DTD SVG 1.1//EN" "http://www.w3.org/Graphics/SVG/1.1/DTD/svg11.dtd"><svg t="1781702779456" class="icon" viewBox="0 0 1024 1024" version="1.1" xmlns="http://www.w3.org/2000/svg" p-id="15477" xmlns:xlink="http://www.w3.org/1999/xlink" width="8000" height="8000"><path d="M195.828 466.84h212.111l48.61 128.151h79.541l-190.019-486.092h-88.378l-190.019 490.509h79.541l48.61-132.569zM284.207 219.37c4.421-13.255 8.839-26.511 13.259-44.187h4.421c0 4.417 4.417 13.257 13.255 35.349 0 4.421 4.421 8.837 4.421 8.837 0 4.421 26.511 66.287 70.704 190.019h-176.762c48.608-123.732 70.704-185.598 70.704-190.019v0zM284.207 219.37z" fill="#ffffff" p-id="15478"></path><path d="M544.929 294.496h406.549v61.866h-406.549v-61.866zM544.929 294.496z" fill="#ffffff" p-id="15479"></path><path d="M67.676 661.275h883.802v61.866h-883.802v-61.866zM67.676 661.275z" fill="#ffffff" p-id="15480"></path><path d="M544.929 480.091h406.549v61.866h-406.549v-61.866zM544.929 480.091z" fill="#ffffff" p-id="15481"></path><path d="M67.676 842.453h883.802v61.866h-883.802v-61.866zM67.676 842.453z" fill="#ffffff" p-id="15482"></path><path d="M544.929 113.32h406.549v61.865h-406.549v-61.865zM544.929 113.32z" fill="#ffffff" p-id="15483"></path></svg>