<?xml version="1.0" standalone="no"?><!DOCTYPE svg PUBLIC "-//W3C//DTD SVG 1.1//EN" "http://www.w3.org/Graphics/SVG/1.1/DTD/svg11.dtd"><svg t="1781702659879" class="icon" viewBox="0 0 1024 1024" version="1.1" xmlns="http://www.w3.org/2000/svg" p-id="12033" xmlns:xlink="http://www.w3.org/1999/xlink" width="8000" height="8000"><path d="M374.144 224a10.666667 10.666667 0 0 0-9.6 5.973333l-143.786667 296.021334a32 32 0 1 1-57.557333-27.989334l143.786667-295.978666a74.666667 74.666667 0 0 1 67.157333-42.026667h413.354667c41.258667 0 74.666667 33.450667 74.666666 74.666667v554.666666a74.666667 74.666667 0 0 1-74.666666 74.666667H347.434667a32 32 0 0 1 0-64h440.064a10.666667 10.666667 0 0 0 10.666666-10.666667v-554.666666a10.666667 10.666667 0 0 0-10.666666-10.666667H374.186667z" fill="#ffffff" fill-opacity=".8" p-id="12034"></path><path d="M259.669333 512c0 35.328-29.482667 64-65.834666 64S128 547.328 128 512s29.44-64 65.834667-64c36.352 0 65.834667 28.672 65.834666 64zM413.269333 192c0 35.328-29.482667 64-65.834666 64S281.6 227.328 281.6 192 311.04 128 347.434667 128c36.352 0 65.834667 28.672 65.834666 64zM896 192c0 35.328-29.44 64-65.834667 64-36.352 0-65.834667-28.672-65.834666-64S793.813333 128 830.165333 128 896 156.672 896 192zM896 832c0 35.328-29.44 64-65.834667 64-36.352 0-65.834667-28.672-65.834666-64s29.482667-64 65.834666-64S896 796.672 896 832zM413.269333 832c0 35.328-29.482667 64-65.834666 64S281.6 867.328 281.6 832 311.04 768 347.434667 768c36.352 0 65.834667 28.672 65.834666 64z" fill="#ffffff" p-id="12035"></path></svg>