<?xml version="1.0" standalone="no"?><!DOCTYPE svg PUBLIC "-//W3C//DTD SVG 1.1//EN" "http://www.w3.org/Graphics/SVG/1.1/DTD/svg11.dtd"><svg t="1781702680326" class="icon" viewBox="0 0 1024 1024" version="1.1" xmlns="http://www.w3.org/2000/svg" p-id="12251" xmlns:xlink="http://www.w3.org/1999/xlink" width="8000" height="8000"><path d="M797.3376 92.8768c16.9472 14.592 31.0784 32.3584 41.3184 52.4288 40.96-15.7696 85.6576-23.7056 134.144-23.7056v-64c-64.1024 0-122.5728 11.776-175.4624 35.328zM627.2 224a57.6 57.6 0 1 1 115.2 0 57.6 57.6 0 0 1-115.2 0z m-143.8208 274.432c32.1024-70.5024 57.2416-122.624 75.3152-156.2624 14.848 15.7696 32.512 28.7744 52.224 38.0928-17.0496 32.512-40.1408 80.7424-69.2736 144.6912-32.3584 71.1168-57.6512 123.4944-75.776 157.1328a7.4752 7.4752 0 0 1-0.1536 0.2048 172.544 172.544 0 0 0-52.1216-38.2976c17.152-32.512 40.448-81.0496 69.7856-145.5616zM281.6 800a57.6 57.6 0 1 1 115.2 0 57.6 57.6 0 0 1-115.2 0z m-96.256 78.7968c10.2912 20.0704 24.4224 37.888 41.3696 52.3776-52.8896 23.5008-111.4112 35.2256-175.5136 35.2256v-64c48.4864 0 93.184-7.8848 134.144-23.6032z" p-id="12252" fill="#ffffff"></path></svg>