<?xml version="1.0" standalone="no"?><!DOCTYPE svg PUBLIC "-//W3C//DTD SVG 1.1//EN" "http://www.w3.org/Graphics/SVG/1.1/DTD/svg11.dtd"><svg t="1781703405975" class="icon" viewBox="0 0 1024 1024" version="1.1" xmlns="http://www.w3.org/2000/svg" p-id="40797" xmlns:xlink="http://www.w3.org/1999/xlink" width="8000" height="8000"><path d="M961 287.6c16.6 0 30-13.4 30-30V63.9c0-16.6-13.4-30-30-30H767.3c-16.6 0-30 13.4-30 30v63.6H287.9V63.9c0-16.6-13.4-30-30-30H64.2c-16.6 0-30 13.4-30 30v193.7c0 16.6 13.4 30 30 30h61.4v449.6H64.2c-16.6 0-30 13.4-30 30v193.7c0 16.6 13.4 30 30 30h193.7c16.6 0 30-13.4 30-30v-62h449.4v62c0 16.6 13.4 30 30 30H961c16.6 0 30-13.4 30-30V767.2c0-16.6-13.4-30-30-30h-64.1V287.6H961z m-223.7-40l-1.1-1.1-490.1 490.7h-60.5v-54.1l496.2-495.5h55.6v60zM185.6 477.1l289.1-289.5h122.2L185.6 598.3V477.1z m102.3-219.5v-70.1h102L185.6 392.1V287.6h72.3c16.6 0 30-13.4 30-30z m-193.7-30V93.9h133.7v133.7H94.2z m133.7 611.3v92H94.2V797.2h133.7v41.7z m60-58.7L778.7 289l-1.3-1.3h59.5v50.9L335.9 839h-48v-58.8z m549-235.7L543 838.9H420.8l416.1-415.6v121.2z m-99.6 222.7v71.7H627.8l209.1-209.5v107.8h-69.6c-16.5 0-30 13.4-30 30z m193.7 30v133.7H797.3V797.2H931z m-94.1-569.6h-39.6V93.9H931v133.7h-94.1z" p-id="40798" fill="#ffffff"></path></svg>