<?xml version="1.0" standalone="no"?><!DOCTYPE svg PUBLIC "-//W3C//DTD SVG 1.1//EN" "http://www.w3.org/Graphics/SVG/1.1/DTD/svg11.dtd"><svg t="1781703010168" class="icon" viewBox="0 0 1024 1024" version="1.1" xmlns="http://www.w3.org/2000/svg" p-id="22300" xmlns:xlink="http://www.w3.org/1999/xlink" width="8000" height="8000"><path d="M661.868 190.986C601.797 88.338 480.732 47.624 427.719 41.226c-72.993-8.809-171.155 6.712-241.314 46.785v78.644c70.159-40.074 168.409-65.651 241.314-52.239 52.516 9.661 118.635 33.49 178.706 136.138l55.443-59.568zM435.504 666.906c11.931-51.388 84.165-73.656 128.551-84.948 138.504-35.238 153.351-106.343 153.351-203.666l-82.036-11.956c0 97.323-17.549 135.498-156.053 170.735-44.386 11.293-125.849 59.149-125.849 117.879l82.036 11.956zM807.663 948.453c-76.119 22.164-194.755 21.148-267.939-15.586-87.509-43.925-112.908-76.016-145.876-129.535l48.553-81.262c32.968 53.519 58.73 102.739 145.985 137.57 107.525 42.923 175.53 22.046 251.649-0.118l-32.372 88.931z" fill="#ffffff" p-id="22301"></path><path d="M124.171 243.051c-62.812 0-113.731-50.919-113.731-113.731S61.359 15.589 124.171 15.589 237.902 66.508 237.902 129.32s-50.919 113.731-113.731 113.731z m35.122-113.731c0-19.397-15.724-35.122-35.122-35.122s-35.122 15.724-35.122 35.122 15.724 35.122 35.122 35.122 35.122-15.725 35.122-35.122zM656.513 405.397c-62.812 0-113.731-50.919-113.731-113.731s50.919-113.731 113.731-113.731 113.731 50.919 113.731 113.731-50.919 113.731-113.731 113.731z m35.122-113.731c0-19.397-15.724-35.122-35.122-35.122s-35.122 15.724-35.122 35.122c0 19.397 15.724 35.122 35.122 35.122s35.122-15.725 35.122-35.122zM382.77 826.992c-62.812 0-113.731-50.919-113.731-113.731S319.958 599.53 382.77 599.53s113.731 50.919 113.731 113.731-50.919 113.731-113.731 113.731z m35.121-113.732c0-19.397-15.724-35.122-35.122-35.122-19.397 0-35.122 15.724-35.122 35.122s15.724 35.122 35.122 35.122 35.122-15.725 35.122-35.122zM897.493 990.596c-62.812 0-113.731-50.919-113.731-113.731s50.919-113.731 113.731-113.731 113.731 50.919 113.731 113.731-50.919 113.731-113.731 113.731z m35.121-113.732c0-19.397-15.724-35.122-35.122-35.122s-35.122 15.724-35.122 35.122 15.724 35.122 35.122 35.122 35.122-15.725 35.122-35.122z" fill="#ffffff" p-id="22302"></path></svg>