<?xml version="1.0" encoding="utf-8"?>
<!-- Generator: Adobe Illustrator 24.0.0, SVG Export Plug-In . SVG Version: 6.00 Build 0)  -->
<svg version="1.1" id="图层_1" xmlns="http://www.w3.org/2000/svg" xmlns:xlink="http://www.w3.org/1999/xlink" x="0px" y="0px"
	 viewBox="0 0 8000 8000" style="enable-background:new 0 0 8000 8000;" xml:space="preserve">
<style type="text/css">
	.st0{fill:#FFFFFF;}
</style>
<path class="st0" d="M5675,1375c-1236.5-72-2134.5-30-2699.5,129.8c-730,206-1119.3,842.5-960.5,1485.8
	C2182,3666.8,2885,4125,3915.3,4125c1759,0,2580.8,1304,1503.8,2219c-341.5,290-1273.7,388.8-2774,274l-19,249.3
	c1566.5,120,2543.7,16.5,2955-332.8C6865.8,5443,5877.5,3875,3915,3875c-1841.5,0-2269.8-1735-872-2129.8
	c532.3-150,1406.3-191.3,2617-120.5l14.5-249.5L5675,1375z"/>
<path class="st0" d="M2159.4,3306.4c414.2,0,750-335.8,750-750s-335.8-750-750-750s-750,335.8-750,750S1745.1,3306.4,2159.4,3306.4z
	 M2159.4,3056.4c-276.1,0-500-223.9-500-500s223.9-500,500-500s500,223.9,500,500S2435.5,3056.4,2159.4,3056.4z"/>
<path class="st0" d="M5148,7309.6c414.2,0,750-335.8,750-750c0-414.2-335.8-750-750-750c-414.2,0-750,335.8-750,750
	C4398,6973.9,4733.8,7309.6,5148,7309.6z M5148,7059.6c-276.1,0-500-223.9-500-500s223.9-500,500-500c276.1,0,500,223.9,500,500
	S5424.1,7059.6,5148,7059.6z"/>
</svg>
